<svg id="Camada_1" data-name="Camada 1" xmlns="http://www.w3.org/2000/svg" viewBox="0 0 580.16 154.51"><path d="M227.52,62.76l-108.75-4,3,75.12,39.75-5.75-.13-15.5,26.5-1,.63,11.38,40.25-6.13ZM186.18,87.17H160.52V62.88h25.66Z" style="fill:#fff"/><polygon points="3.77 53.26 43.77 53.26 42.52 31.01 3.77 32.51 3.77 53.26" style="fill:#fff"/><polygon points="5.64 55.51 45.77 56.76 45.77 68.51 73.02 68.51 73.02 57.76 113.02 58.38 114.39 135.38 74.77 141.51 74.52 106.88 47.14 107.01 48.39 144.13 8.02 144.13 5.64 55.51" style="fill:#fff"/><polygon points="79.77 150.51 120.27 142.76 120.27 150.51 79.77 150.51" style="fill:#fff"/><polygon points="70.14 29.76 110.27 27.26 111.39 55.51 71.02 55.51 70.14 29.76" style="fill:#fff"/><polygon points="115.77 27.26 222.89 22.63 224.77 57.13 117.14 55.51 115.77 27.26" style="fill:#fff"/><polygon points="125.89 141.63 166.02 134.51 166.02 147.63 125.89 148.76 125.89 141.63" style="fill:#fff"/><polygon points="192.89 130.13 232.77 122.88 232.77 144.13 192.89 145.76 192.89 130.13" style="fill:#fff"/><polygon points="239.02 121.76 278.89 114.38 280.02 141.63 239.02 142.76 239.02 121.76" style="fill:#fff"/><polygon points="284.89 113.38 306.39 139.76 347.14 138.38 344.77 102.38 284.89 113.38" style="fill:#fff"/><polygon points="229.77 21.76 270.27 20.13 297.39 53.01 296.39 18.51 337.39 17.26 338.64 59.38 230.77 57.13 229.77 21.76" style="fill:#fff"/><polygon points="233.39 62.88 340.27 65.63 341.64 99.01 280.77 108.51 275.27 101.51 275.14 109.63 234.39 116.26 233.39 62.88" style="fill:#fff"/><polygon points="343.52 17.26 371.89 15.88 451.39 28.76 451.39 53.63 443.14 60.63 376.52 59.38 378.02 57.51 344.89 58.38 343.52 17.26" style="fill:#fff"/><polygon points="377.27 67.38 444.89 69.26 425.52 86.38 348.02 97.63 348.02 92.38 377.27 67.38" style="fill:#fff"/><polygon points="351.89 101.76 427.89 88.63 424.89 92.26 459.02 90.76 460.39 132.26 352.77 137.13 351.89 101.76" style="fill:#fff"/><polygon points="379.14 7.38 457.64 25.38 457.64 8.51 379.14 7.38" style="fill:#fff"/><path d="M522.64,39.76,471.27,28s16-24.25,47.12-24S566,30.38,566,30.38s6.5,11.88,8,19.5l-4.88-.12.25,3.37,1.25-.62L571,65l-44.25-2.25s-2.25-13.13-12-13.5-13.13,6.5-14.25,11.37c-3.88.38-44.75,0-44.75,0s.62-19,9.37-29.75Z" style="fill:#fff"/><polygon points="457.64 69.88 502.02 71.26 502.02 73.63 457.64 80.63 457.64 69.88" style="fill:#fff"/><path d="M504.77,75.26s1.62,11.37,11.62,12.12,12.25-4.87,12.25-4.87a16.51,16.51,0,0,0,3-8.63l44.75.75s.38,45.63-47.75,57.88c-20,3.62-41.62-8.38-41.62-8.38s-21-14.37-25.63-41Z" style="fill:#fff"/></svg>